HIERARCHY
ROOT hip
{
  OFFSET 0 0 0
  CHANNELS 6 Xposition Yposition Zposition Zrotation Yrotation Xrotation
  JOINT abdomen
  {
    OFFSET 0 20.6881 -0.73152
    CHANNELS 3 Zrotation Xrotation Yrotation
    JOINT chest
    {
      OFFSET 0 11.7043 -0.48768
      CHANNELS 3 Zrotation Xrotation Yrotation
      JOINT neck
      {
        OFFSET 0 22.1894 -2.19456
        CHANNELS 3 Zrotation Xrotation Yrotation
        JOINT head
        {
          OFFSET -0.24384 7.07133 1.2192
          CHANNELS 3 Zrotation Xrotation Yrotation
          JOINT leftEye
          {
            OFFSET 4.14528 8.04674 8.04672
            CHANNELS 3 Zrotation Xrotation Yrotation
            End Site
            {
              OFFSET 1 0 0
            }
          }
          JOINT rightEye
          {
            OFFSET -3.6576 8.04674 8.04672
            CHANNELS 3 Zrotation Xrotation Yrotation
            End Site
            {
              OFFSET 1 0 0
            }
          }
        }
      }
      JOINT rCollar
      {
        OFFSET -2.68224 19.2634 -4.8768
        CHANNELS 3 Zrotation Xrotation Yrotation
        JOINT rShldr
        {
          OFFSET -8.77824 -1.95073 1.46304
          CHANNELS 3 Zrotation Xrotation Yrotation
          JOINT rForeArm
          {
            OFFSET -28.1742 -1.7115 0.48768
            CHANNELS 3 Zrotation Xrotation Yrotation
            JOINT rHand
            {
              OFFSET -22.5879 0.773209 7.07136
              CHANNELS 3 Zrotation Xrotation Yrotation
              JOINT rThumb1
              {
                OFFSET -1.2192 -0.487915 3.41376
                CHANNELS 3 Zrotation Xrotation Yrotation
                JOINT rThumb2
                {
                  OFFSET -3.37035 -0.52449 3.41376
                  CHANNELS 3 Zrotation Xrotation Yrotation
                  End Site
                  {
                    OFFSET -1.78271 -1.18214 1.43049
                  }
                }
              }
              JOINT rIndex1
              {
                OFFSET -7.75947 0.938293 5.60832
                CHANNELS 3 Zrotation Xrotation Yrotation
                JOINT rIndex2
                {
                  OFFSET -2.54057 -0.884171 1.56538
                  CHANNELS 3 Zrotation Xrotation Yrotation
                  End Site
                  {
                    OFFSET -1.62519 -0.234802 1.16502
                  }
                }
              }
              JOINT rMid1
              {
                OFFSET -8.24714 1.18213 3.41376
                CHANNELS 3 Zrotation Xrotation Yrotation
                JOINT rMid2
                {
                  OFFSET -3.10165 -0.590103 1.0647
                  CHANNELS 3 Zrotation Xrotation Yrotation
                  End Site
                  {
                    OFFSET -2.48547 -0.328903 0.83742
                  }
                }
              }
              JOINT rRing1
              {
                OFFSET -8.82822 0.546677 1.51678
                CHANNELS 3 Zrotation Xrotation Yrotation
                JOINT rRing2
                {
                  OFFSET -2.60934 -0.819778 -0.0198488
                  CHANNELS 3 Zrotation Xrotation Yrotation
                  End Site
                  {
                    OFFSET -2.33842 -0.294052 0.168128
                  }
                }
              }
              JOINT rPinky1
              {
                OFFSET -8.27202 -0.0477905 -0.4584
                CHANNELS 3 Zrotation Xrotation Yrotation
                JOINT rPinky2
                {
                  OFFSET -1.82734 -0.647385 -0.700984
                  CHANNELS 3 Zrotation Xrotation Yrotation
                  End Site
                  {
                    OFFSET -1.69225 -0.51767 -0.607171
                  }
                }
              }
            }
          }
        }
      }
      JOINT lCollar
      {
        OFFSET 2.68224 19.2634 -4.8768
        CHANNELS 3 Zrotation Xrotation Yrotation
        JOINT lShldr
        {
          OFFSET 8.77824 -1.95073 1.46304
          CHANNELS 3 Zrotation Xrotation Yrotation
          JOINT lForeArm
          {
            OFFSET 28.1742 -1.7115 0.48768
            CHANNELS 3 Zrotation Xrotation Yrotation
            JOINT lHand
            {
              OFFSET 22.5879 0.773209 7.07136
              CHANNELS 3 Zrotation Xrotation Yrotation
              JOINT lThumb1
              {
                OFFSET 1.2192 -0.487915 3.41376
                CHANNELS 3 Zrotation Xrotation Yrotation
                JOINT lThumb2
                {
                  OFFSET 3.37035 -0.52449 3.41376
                  CHANNELS 3 Zrotation Xrotation Yrotation
                  End Site
                  {
                    OFFSET 1.78271 -1.18214 1.43049
                  }
                }
              }
              JOINT lIndex1
              {
                OFFSET 7.75947 0.938293 5.60832
                CHANNELS 3 Zrotation Xrotation Yrotation
                JOINT lIndex2
                {
                  OFFSET 2.54057 -0.884171 1.56538
                  CHANNELS 3 Zrotation Xrotation Yrotation
                  End Site
                  {
                    OFFSET 1.62519 -0.234802 1.16502
                  }
                }
              }
              JOINT lMid1
              {
                OFFSET 8.24714 1.18213 3.41376
                CHANNELS 3 Zrotation Xrotation Yrotation
                JOINT lMid2
                {
                  OFFSET 3.10165 -0.590103 1.0647
                  CHANNELS 3 Zrotation Xrotation Yrotation
                  End Site
                  {
                    OFFSET 2.48547 -0.328903 0.83742
                  }
                }
              }
              JOINT lRing1
              {
                OFFSET 8.82822 0.546677 1.51678
                CHANNELS 3 Zrotation Xrotation Yrotation
                JOINT lRing2
                {
                  OFFSET 2.60934 -0.819778 -0.0198488
                  CHANNELS 3 Zrotation Xrotation Yrotation
                  End Site
                  {
                    OFFSET 2.33842 -0.294052 0.168128
                  }
                }
              }
              JOINT lPinky1
              {
                OFFSET 8.27202 -0.0477905 -0.4584
                CHANNELS 3 Zrotation Xrotation Yrotation
                JOINT lPinky2
                {
                  OFFSET 1.82734 -0.647385 -0.700984
                  CHANNELS 3 Zrotation Xrotation Yrotation
                  End Site
                  {
                    OFFSET 1.69225 -0.51767 -0.607171
                  }
                }
              }
            }
          }
        }
      }
    }
  }
  JOINT rButtock
  {
    OFFSET -8.77824 4.35084 1.2192
    CHANNELS 3 Zrotation Xrotation Yrotation
    JOINT rThigh
    {
      OFFSET 0 -1.70687 -2.19456
      CHANNELS 3 Zrotation Xrotation Yrotation
      JOINT rShin
      {
        OFFSET 0 -36.8199 0.73152
        CHANNELS 3 Zrotation Xrotation Yrotation
        JOINT rFoot
        {
          OFFSET 0.73152 -45.1104 -5.12064
          CHANNELS 3 Zrotation Xrotation Yrotation
          End Site
          {
            OFFSET -1.1221 -3.69964 12.103
          }
        }
      }
    }
  }
  JOINT lButtock
  {
    OFFSET 8.77824 4.35084 1.2192
    CHANNELS 3 Zrotation Xrotation Yrotation
    JOINT lThigh
    {
      OFFSET 0 -1.70687 -2.19456
      CHANNELS 3 Zrotation Xrotation Yrotation
      JOINT lShin
      {
        OFFSET 0 -36.8199 0.73152
        CHANNELS 3 Zrotation Xrotation Yrotation
        JOINT lFoot
        {
          OFFSET -0.73152 -45.1104 -5.12064
          CHANNELS 3 Zrotation Xrotation Yrotation
          End Site
          {
            OFFSET 1.1221 -3.69964 12.103
          }
        }
      }
    }
  }
}
MOTION
Frames:	6
Frame Time:	0.00833333
-76.5982 84.3737 -229.164 0.0 0.0 0.0 -1.03704 -0.00414434 -0.0285998 -0.285912 -0.00382788 -0.0495312 3.0689e-14 7.95139e-16 3.47873e-16 9.20187e-14 9.54166e-15 1.06381e-15 -0.0 0.0 0.0 -0.0 0.0 0.0 1.53553e-14 -9.70628e-19 2.98177e-16 3.2408e-13 3.72721e-16 5.56597e-15 5.55191e-12 -1.66363e-12 2.22639e-14 6.36157e-11 1.67759e-12 8.015e-13 1.50049e-10 2.27503e-14 1.78747e-12 2.59125e-10 3.49861e-14 3.06208e-12 1.50053e-10 2.38542e-14 1.76839e-12 7.73091 5.47488 0.417314 1.50048e-10 2.18663e-14 1.78111e-12 2.90554 0.965183 0.102902 1.50058e-10 2.29596e-14 1.77793e-12 10.2786 0.731801 0.0259123 1.50049e-10 2.34566e-14 1.77475e-12 2.22167 -0.733487 -0.20892 1.52586e-14 -7.76503e-19 9.93923e-17 3.20164e-13 -2.17421e-16 3.57812e-15 5.56388e-12 1.66085e-12 1.27222e-14 6.36165e-11 -1.67725e-12 8.14222e-13 1.50078e-10 -3.38698e-14 1.76521e-12 2.59192e-10 -5.725e-14 3.0581e-12 1.50071e-10 -3.53837e-14 1.77157e-12 -7.73091 5.47488 -0.417314 1.50078e-10 -3.40916e-14 1.76839e-12 -2.90554 0.965183 -0.102902 1.50071e-10 -3.33958e-14 1.77395e-12 -10.2786 0.731801 -0.0259123 1.50085e-10 -2.90226e-14 1.77157e-12 -2.22167 -0.733487 0.20892 -2.03217e-16 0.0 -3.88251e-19 -0.272814 -1.9197 -0.0125409 -0.00938523 -2.07854 -0.0775824 -0.51329 3.99654 0.140464 2.03217e-16 0.0 3.88251e-19 -1.30492 -5.55695 0.114025 -0.000204662 4.50985 -0.0271212 0.527345 1.04554 -0.0815496
-72.7098 82.8477 -234.236 6.4821 72.1482 7.6792 -1.15845 3.32577 -2.06646 0.24551 -2.12006 -0.624311 -0.656024 -0.143448 -1.9966 1.32508 6.36106 -3.55215 -0.0 0.0 0.0 -0.0 0.0 0.0 1.79151e-14 -5.61934e-14 3.3277e-14 18.3926 8.55025 -0.00560957 -6.37509 -3.51084 9.20019 0.0353629 -4.17459 -0.581094 3.38504e-12 -5.33906e-11 3.81974e-11 5.92053e-12 -9.07962e-11 6.43541e-11 3.38837e-12 -5.33921e-11 3.81779e-11 7.73091 5.47488 0.417314 3.38437e-12 -5.33911e-11 3.81939e-11 2.90554 0.965183 0.102902 3.39402e-12 -5.33904e-11 3.81909e-11 10.2786 0.731801 0.0259123 3.3849e-12 -5.33907e-11 3.81908e-11 2.22167 -0.733487 -0.20892 1.78332e-14 -5.61959e-14 3.30942e-14 -22.4068 21.5967 -3.57507 11.8631 -8.79698 -13.3696 -0.181316 -9.46981 1.26619 -6.28395e-12 -2.27795e-11 -9.98656e-11 -8.0703e-12 -2.56415e-11 -1.77125e-10 -6.2892e-12 -2.27824e-11 -9.98593e-11 -7.73091 5.47488 -0.417314 -6.28228e-12 -2.27813e-11 -9.98642e-11 -2.90554 0.965183 -0.102902 -6.29065e-12 -2.27823e-11 -9.98599e-11 -10.2786 0.731801 -0.0259123 -6.27694e-12 -2.27792e-11 -9.98636e-11 -2.22167 -0.733487 0.20892 -2.03217e-16 0.0 -3.88251e-19 -1.63965 -8.86316 -3.35912 0.053729 11.9742 0.15353 -0.43404 -7.55648 -0.269238 2.03217e-16 0.0 3.88251e-19 -0.0828051 -7.36239 -1.47006 -0.00273182 13.0232 -0.146915 -0.405011 -9.58888 -3.7012
-72.6326 83.1261 -232.473 5.8237 72.6548 7.0644 -1.02396 6.84608 -4.23577 0.770141 -4.35877 -1.23159 -1.34911 -0.305359 -4.10167 3.57022 13.0149 -7.44063 -0.0 0.0 0.0 -0.0 0.0 0.0 2.12917e-14 -1.1579e-13 6.81397e-14 37.799 17.6233 -0.00598058 -11.9119 -6.92831 19.0465 -0.0203419 -8.59805 -1.20739 -1.6095e-10 -9.10822e-11 6.00853e-11 -2.77641e-10 -1.5403e-10 1.0025e-10 -1.60948e-10 -9.10866e-11 6.00652e-11 7.73091 5.47488 0.417314 -1.60951e-10 -9.10823e-11 6.00849e-11 2.90554 0.965183 0.102902 -1.6094e-10 -9.1082e-11 6.00821e-11 10.2786 0.731801 0.0259123 -1.6095e-10 -9.10833e-11 6.00851e-11 2.22167 -0.733487 -0.20892 2.12248e-14 -1.15795e-13 6.7975e-14 -42.1344 44.1134 -9.58577 19.9801 -16.5167 -28.4695 0.107093 -19.4659 2.7252 -1.97904e-10 -1.10281e-10 -1.94242e-10 -3.36349e-10 -1.6165e-10 -3.45763e-10 -1.97908e-10 -1.10286e-10 -1.94235e-10 -7.73091 5.47488 -0.417314 -1.97901e-10 -1.10285e-10 -1.94242e-10 -2.90554 0.965183 -0.102902 -1.9791e-10 -1.10287e-10 -1.94239e-10 -10.2786 0.731801 -0.0259123 -1.97898e-10 -1.10286e-10 -1.94244e-10 -2.22167 -0.733487 0.20892 -2.03217e-16 0.0 -3.88251e-19 -4.01165 -16.1388 -7.15482 -0.0166877 26.8689 0.436072 -0.499535 -19.7274 -0.647849 2.03217e-16 0.0 3.88251e-19 1.1167 -9.26524 -3.121 0.0368351 22.0428 -0.286149 -2.96635 -20.6606 -8.01504
-72.5469 83.3553 -230.786 5.8602 73.1339 7.1216 -0.682962 9.93432 -6.22543 1.18032 -6.34986 -1.78353 -1.99801 -0.428254 -5.98996 6.43872 18.7816 -11.1939 -0.0 0.0 0.0 -0.0 0.0 0.0 2.30347e-14 -1.68578e-13 9.92347e-14 55.1832 25.6508 -0.018461 -15.8502 -9.44791 27.9601 -0.153166 -12.5185 -1.78101 -2.89944e-10 -1.60217e-10 1.11017e-10 -5.00489e-10 -2.72459e-10 1.86938e-10 -2.89941e-10 -1.60224e-10 1.10997e-10 7.73091 5.47488 0.417314 -2.89943e-10 -1.60217e-10 1.11019e-10 2.90554 0.965183 0.102902 -2.89933e-10 -1.60217e-10 1.11017e-10 10.2786 0.731801 0.0259123 -2.89943e-10 -1.60219e-10 1.11023e-10 2.22167 -0.733487 -0.20892 2.29824e-14 -1.68586e-13 9.90837e-14 -50.8814 63.1162 -22.5155 23.7483 -20.5502 -42.9336 0.855952 -28.35 4.2583 -3.19008e-10 -6.82709e-11 -3.03127e-10 -5.42595e-10 -7.68101e-11 -5.37491e-10 -3.1901e-10 -6.82763e-11 -3.03121e-10 -7.73091 5.47488 -0.417314 -3.19003e-10 -6.82758e-11 -3.03129e-10 -2.90554 0.965183 -0.102902 -3.19014e-10 -6.828e-11 -3.03128e-10 -10.2786 0.731801 -0.0259123 -3.19002e-10 -6.82795e-11 -3.03134e-10 -2.22167 -0.733487 0.20892 -2.03217e-16 0.0 -3.88251e-19 -6.96559 -22.4347 -10.7544 -0.239714 40.0772 0.791502 -0.829706 -30.6567 -1.25659 2.03217e-16 0.0 3.88251e-19 2.05712 -10.9446 -4.6862 0.114292 30.0493 -0.433615 -6.80895 -30.3125 -12.5189
-72.5011 83.5178 -229.07 5.5313 73.4159 6.9835 -0.336186 11.9907 -7.68582 1.3941 -7.72437 -2.18806 -2.5118 -0.455937 -7.33613 9.0984 22.6132 -14.0969 -0.0 0.0 0.0 -0.0 0.0 0.0 2.06937e-14 -2.04346e-13 1.20911e-13 67.5179 31.0642 -0.06369 -18.0776 -10.7703 34.1945 -0.291493 -15.1867 -2.18631 -3.3058e-10 -3.0796e-10 2.3456e-10 -5.71556e-10 -5.28875e-10 4.00604e-10 -3.30578e-10 -3.07969e-10 2.3454e-10 7.73091 5.47488 0.417314 -3.3058e-10 -3.0796e-10 2.34563e-10 2.90554 0.965183 0.102902 -3.3057e-10 -3.0796e-10 2.34561e-10 10.2786 0.731801 0.0259123 -3.3058e-10 -3.07962e-10 2.34569e-10 2.22167 -0.733487 -0.20892 2.06549e-14 -2.04355e-13 1.20762e-13 -39.5017 73.8315 -48.2008 25.0268 -21.1536 -53.0443 1.72355 -34.5103 5.54505 -2.63821e-10 2.97519e-10 -4.48286e-10 -4.43759e-10 5.6015e-10 -7.86943e-10 -2.63823e-10 2.97514e-10 -4.4828e-10 -7.73091 5.47488 -0.417314 -2.63815e-10 2.97513e-10 -4.4829e-10 -2.90554 0.965183 -0.102902 -2.63826e-10 2.97508e-10 -4.48289e-10 -10.2786 0.731801 -0.0259123 -2.63814e-10 2.97508e-10 -4.48296e-10 -2.22167 -0.733487 0.20892 -2.03217e-16 0.0 -3.88251e-19 -9.3989 -26.6037 -13.1783 -0.538425 49.0721 1.17062 -1.65058 -38.4781 -2.39225 2.03217e-16 0.0 3.88251e-19 2.55457 -12.0868 -6.00038 0.196121 35.5237 -0.559605 -10.3542 -36.979 -15.9458
-72.408 83.7425 -227.486 5.9872 73.9992 7.4983 -0.193631 12.6341 -8.38629 1.35019 -8.23617 -2.39146 -2.82355 -0.344347 -7.91192 10.6175 23.9372 -15.4177 -0.0 0.0 0.0 -0.0 0.0 0.0 1.25781e-14 -2.2177e-13 1.23587e-13 72.7804 32.8451 -0.142322 -18.8006 -11.1247 36.5136 -0.350113 -16.0945 -2.32803 -2.17526e-10 -5.29347e-10 4.63176e-10 -3.78227e-10 -9.16121e-10 7.98376e-10 -2.17524e-10 -5.29355e-10 4.6316e-10 7.73091 5.47488 0.417314 -2.17526e-10 -5.29347e-10 4.63178e-10 2.90554 0.965183 0.102902 -2.17518e-10 -5.29347e-10 4.63178e-10 10.2786 0.731801 0.0259123 -2.17528e-10 -5.29348e-10 4.63187e-10 2.22167 -0.733487 -0.20892 1.25535e-14 -2.21778e-13 1.2342e-13 -26.3117 76.3969 -66.4712 25.3102 -20.7235 -56.5741 2.15415 -36.8828 6.11079 1.05228e-10 1.23805e-09 -6.34169e-10 1.97471e-10 2.17647e-09 -1.0979e-09 1.05224e-10 1.23805e-09 -6.34162e-10 -7.73091 5.47488 -0.417314 1.05233e-10 1.23805e-09 -6.34171e-10 -2.90554 0.965183 -0.102902 1.05224e-10 1.23804e-09 -6.34172e-10 -10.2786 0.731801 -0.0259123 1.05235e-10 1.23804e-09 -6.34179e-10 -2.22167 -0.733487 0.20892 -2.03217e-16 0.0 -3.88251e-19 -10.0821 -28.0122 -13.3499 -0.690236 52.1405 1.39209 -3.18363 -42.0184 -4.39822 2.03217e-16 0.0 3.88251e-19 2.51056 -12.4786 -6.96808 0.230675 37.418 -0.620864 -11.4153 -39.9484 -16.5069
